{
    "asset" : {
        "generator" : "Khronos glTF Blender I/O v1.8.19",
        "version" : "2.0"
    },
    "scene" : 0,
    "scenes" : [
        {
            "name" : "Scene",
            "nodes" : [
                0
            ]
        }
    ],
    "nodes" : [
        {
            "mesh" : 0,
            "name" : "Tree",
            "rotation" : [
                0.7071068286895752,
                0,
                0,
                0.7071067094802856
            ],
            "scale" : [
                0.05000000074505806,
                0.05000000074505806,
                0.05000000074505806
            ]
        }
    ],
    "materials" : [
        {
            "doubleSided" : true,
            "name" : "trunk_color",
            "pbrMetallicRoughness" : {
                "baseColorFactor" : [
                    0.800000011920929,
                    0.800000011920929,
                    0.800000011920929,
                    1
                ],
                "metallicFactor" : 0,
                "roughnessFactor" : 0.5
            }
        },
        {
            "doubleSided" : true,
            "name" : "branch_color.001",
            "pbrMetallicRoughness" : {
                "baseColorFactor" : [
                    0.800000011920929,
                    0.800000011920929,
                    0.800000011920929,
                    1
                ],
                "metallicFactor" : 0,
                "roughnessFactor" : 0.5
            }
        },
        {
            "doubleSided" : true,
            "name" : "branch_color",
            "pbrMetallicRoughness" : {
                "baseColorFactor" : [
                    0.800000011920929,
                    0.800000011920929,
                    0.800000011920929,
                    1
                ],
                "metallicFactor" : 0,
                "roughnessFactor" : 0.5
            }
        },
        {
            "doubleSided" : true,
            "name" : "branch_color.003",
            "pbrMetallicRoughness" : {
                "baseColorFactor" : [
                    0.800000011920929,
                    0.800000011920929,
                    0.800000011920929,
                    1
                ],
                "metallicFactor" : 0,
                "roughnessFactor" : 0.5
            }
        }
    ],
    "meshes" : [
        {
            "name" : "Tree",
            "primitives" : [
                {
                    "attributes" : {
                        "POSITION" : 0,
                        "NORMAL" : 1,
                        "TEXCOORD_0" : 2
                    },
                    "indices" : 3,
                    "material" : 0
                },
                {
                    "attributes" : {
                        "POSITION" : 4,
                        "NORMAL" : 5,
                        "TEXCOORD_0" : 6
                    },
                    "indices" : 7,
                    "material" : 1
                },
                {
                    "attributes" : {
                        "POSITION" : 8,
                        "NORMAL" : 9,
                        "TEXCOORD_0" : 10
                    },
                    "indices" : 11,
                    "material" : 2
                },
                {
                    "attributes" : {
                        "POSITION" : 12,
                        "NORMAL" : 13,
                        "TEXCOORD_0" : 14
                    },
                    "indices" : 15,
                    "material" : 3
                }
            ]
        }
    ],
    "accessors" : [
        {
            "bufferView" : 0,
            "componentType" : 5126,
            "count" : 220,
            "max" : [
                3.662992000579834,
                3.2142269611358643,
                0
            ],
            "min" : [
                -2.7079379558563232,
                -5.079645156860352,
                -14.202574729919434
            ],
            "type" : "VEC3"
        },
        {
            "bufferView" : 1,
            "componentType" : 5126,
            "count" : 220,
            "type" : "VEC3"
        },
        {
            "bufferView" : 2,
            "componentType" : 5126,
            "count" : 220,
            "type" : "VEC2"
        },
        {
            "bufferView" : 3,
            "componentType" : 5123,
            "count" : 444,
            "type" : "SCALAR"
        },
        {
            "bufferView" : 4,
            "componentType" : 5126,
            "count" : 528,
            "max" : [
                4.1567888259887695,
                4.999514102935791,
                -6.1425089836120605
            ],
            "min" : [
                -4.402393817901611,
                -5.456007957458496,
                -10.033862113952637
            ],
            "type" : "VEC3"
        },
        {
            "bufferView" : 5,
            "componentType" : 5126,
            "count" : 528,
            "type" : "VEC3"
        },
        {
            "bufferView" : 6,
            "componentType" : 5126,
            "count" : 528,
            "type" : "VEC2"
        },
        {
            "bufferView" : 7,
            "componentType" : 5123,
            "count" : 960,
            "type" : "SCALAR"
        },
        {
            "bufferView" : 8,
            "componentType" : 5126,
            "count" : 1298,
            "max" : [
                4.486680030822754,
                2.5662009716033936,
                -5.443004131317139
            ],
            "min" : [
                -6.10389518737793,
                -5.598247051239014,
                -16.72641372680664
            ],
            "type" : "VEC3"
        },
        {
            "bufferView" : 9,
            "componentType" : 5126,
            "count" : 1298,
            "type" : "VEC3"
        },
        {
            "bufferView" : 10,
            "componentType" : 5126,
            "count" : 1298,
            "type" : "VEC2"
        },
        {
            "bufferView" : 11,
            "componentType" : 5123,
            "count" : 2400,
            "type" : "SCALAR"
        },
        {
            "bufferView" : 12,
            "componentType" : 5126,
            "count" : 256,
            "max" : [
                -1.5548150539398193,
                4.4555439949035645,
                -8.739313125610352
            ],
            "min" : [
                -4.818020820617676,
                1.2396140098571777,
                -12.334739685058594
            ],
            "type" : "VEC3"
        },
        {
            "bufferView" : 13,
            "componentType" : 5126,
            "count" : 256,
            "type" : "VEC3"
        },
        {
            "bufferView" : 14,
            "componentType" : 5126,
            "count" : 256,
            "type" : "VEC2"
        },
        {
            "bufferView" : 15,
            "componentType" : 5123,
            "count" : 480,
            "type" : "SCALAR"
        }
    ],
    "bufferViews" : [
        {
            "buffer" : 0,
            "byteLength" : 2640,
            "byteOffset" : 0
        },
        {
            "buffer" : 0,
            "byteLength" : 2640,
            "byteOffset" : 2640
        },
        {
            "buffer" : 0,
            "byteLength" : 1760,
            "byteOffset" : 5280
        },
        {
            "buffer" : 0,
            "byteLength" : 888,
            "byteOffset" : 7040
        },
        {
            "buffer" : 0,
            "byteLength" : 6336,
            "byteOffset" : 7928
        },
        {
            "buffer" : 0,
            "byteLength" : 6336,
            "byteOffset" : 14264
        },
        {
            "buffer" : 0,
            "byteLength" : 4224,
            "byteOffset" : 20600
        },
        {
            "buffer" : 0,
            "byteLength" : 1920,
            "byteOffset" : 24824
        },
        {
            "buffer" : 0,
            "byteLength" : 15576,
            "byteOffset" : 26744
        },
        {
            "buffer" : 0,
            "byteLength" : 15576,
            "byteOffset" : 42320
        },
        {
            "buffer" : 0,
            "byteLength" : 10384,
            "byteOffset" : 57896
        },
        {
            "buffer" : 0,
            "byteLength" : 4800,
            "byteOffset" : 68280
        },
        {
            "buffer" : 0,
            "byteLength" : 3072,
            "byteOffset" : 73080
        },
        {
            "buffer" : 0,
            "byteLength" : 3072,
            "byteOffset" : 76152
        },
        {
            "buffer" : 0,
            "byteLength" : 2048,
            "byteOffset" : 79224
        },
        {
            "buffer" : 0,
            "byteLength" : 960,
            "byteOffset" : 81272
        }
    ],
    "buffers" : [
        {
            "byteLength" : 82232,
            "uri" : "data:application/octet-stream;base64,"
        }
    ]
}
